<?xml version="1.0" standalone="no"?><!-- Generator: Gravit.io --><svg xmlns="http://www.w3.org/2000/svg" xmlns:xlink="http://www.w3.org/1999/xlink" style="isolation:isolate" viewBox="0 0 1064 1064" width="1064" height="1064"><defs><clipPath id="_clipPath_YP9zGJR9sjpDPG5DYCyesqL3bMqvfeBO"><rect width="1064" height="1064"/></clipPath></defs><g clip-path="url(#_clipPath_YP9zGJR9sjpDPG5DYCyesqL3bMqvfeBO)"><rect width="1064" height="1064" style="fill:rgb(0,0,0)" fill-opacity="0"/><circle vector-effect="non-scaling-stroke" cx="532" cy="532" r="512" fill="rgb(255,255,255)"/><g><g><g><path d=" M 635.213 919.319 C 635.213 906.993 619.907 897.105 600.944 897.105 L 463.869 897.105 C 444.906 897.105 429.6 907.128 429.6 919.319 C 429.6 931.644 444.906 941.532 463.869 941.532 L 600.944 941.532 C 619.907 941.532 635.213 931.644 635.213 919.319 L 635.213 919.319 Z " fill="rgb(161,161,161)"/><path d=" M 703.75 852.406 C 703.75 840.08 688.444 830.193 669.481 830.193 L 395.331 830.193 C 376.368 830.193 361.062 840.216 361.062 852.406 C 361.062 864.597 376.368 874.62 395.331 874.62 L 669.481 874.62 C 688.444 874.756 703.75 864.732 703.75 852.406 L 703.75 852.406 Z " fill="rgb(161,161,161)"/><path d=" M 772.288 785.63 C 772.288 773.304 756.982 763.416 738.019 763.416 L 326.794 763.416 C 307.831 763.416 292.525 773.439 292.525 785.63 C 292.525 797.956 307.831 807.843 326.794 807.843 L 738.019 807.843 C 756.982 807.843 772.288 797.956 772.288 785.63 L 772.288 785.63 Z " fill="rgb(161,161,161)"/><path d=" M 738.154 741.067 L 326.794 741.067 C 307.831 741.067 292.525 731.043 292.525 718.853 C 292.525 706.527 307.831 696.639 326.794 696.639 L 738.019 696.639 C 756.982 696.639 772.288 706.662 772.288 718.853 C 772.288 731.043 756.982 741.067 738.154 741.067 L 738.154 741.067 Z " fill="rgb(161,161,161)"/></g><g><path d=" M 408.876 295.302 C 408.876 297.198 408.199 298.823 406.98 300.042 C 405.761 301.261 404.135 301.939 402.239 301.939 L 377.587 301.939 C 375.691 301.939 374.066 301.261 372.847 300.042 C 371.628 298.823 370.95 297.198 370.95 295.302 L 370.95 215.657 C 370.95 213.761 371.628 212.135 372.847 210.916 C 374.066 209.697 375.691 209.02 377.587 209.02 L 402.239 209.02 C 404.135 209.02 405.761 209.697 406.98 210.916 C 408.199 212.135 408.876 213.761 408.876 215.657 L 408.876 295.302 Z  M 400.614 294.624 L 400.614 216.334 L 379.213 216.334 L 379.213 294.624 L 400.614 294.624 Z " fill="rgb(255,0,0)"/><path d=" M 432.986 301.939 L 424.724 301.939 L 424.724 237.6 L 421.067 237.6 L 421.067 237.329 L 426.349 209.156 L 433.122 209.156 L 433.122 301.939 L 432.986 301.939 Z " fill="rgb(255,0,0)"/><path d=" M 486.353 295.302 C 486.353 297.198 485.676 298.823 484.457 300.042 C 483.238 301.261 481.613 301.939 479.716 301.939 L 455.065 301.939 C 453.168 301.939 451.543 301.261 450.324 300.042 C 449.105 298.823 448.428 297.198 448.428 295.302 L 448.428 215.657 C 448.428 213.761 449.105 212.135 450.324 210.916 C 451.543 209.697 453.168 209.02 455.065 209.02 L 479.716 209.02 C 481.613 209.02 483.238 209.697 484.457 210.916 C 485.676 212.135 486.353 213.761 486.353 215.657 L 486.353 295.302 Z  M 478.091 294.624 L 478.091 216.334 L 456.69 216.334 L 456.69 294.624 L 478.091 294.624 Z " fill="rgb(255,0,0)"/><path d=" M 539.043 295.302 C 539.043 297.198 538.366 298.823 537.147 300.042 C 535.928 301.261 534.303 301.939 532.406 301.939 L 507.754 301.939 C 505.858 301.939 504.233 301.261 503.014 300.042 C 501.795 298.823 501.117 297.198 501.117 295.302 L 501.117 215.657 C 501.117 213.761 501.795 212.135 503.014 210.916 C 504.233 209.697 505.858 209.02 507.754 209.02 L 532.406 209.02 C 534.303 209.02 535.928 209.697 537.147 210.916 C 538.366 212.135 539.043 213.761 539.043 215.657 L 539.043 295.302 Z  M 530.781 294.624 L 530.781 216.334 L 509.38 216.334 L 509.38 294.624 L 530.781 294.624 Z " fill="rgb(255,0,0)"/><path d=" M 591.869 295.302 C 591.869 297.198 591.192 298.823 589.972 300.042 C 588.753 301.261 587.128 301.939 585.232 301.939 L 560.58 301.939 C 558.684 301.939 557.058 301.261 555.839 300.042 C 554.62 298.823 553.943 297.198 553.943 295.302 L 553.943 215.657 C 553.943 213.761 554.62 212.135 555.839 210.916 C 557.058 209.697 558.684 209.02 560.58 209.02 L 585.232 209.02 C 587.128 209.02 588.753 209.697 589.972 210.916 C 591.192 212.135 591.869 213.761 591.869 215.657 L 591.869 295.302 Z  M 583.606 294.624 L 583.606 216.334 L 562.205 216.334 L 562.205 294.624 L 583.606 294.624 Z " fill="rgb(255,0,0)"/><path d=" M 615.979 301.939 L 607.716 301.939 L 607.716 237.6 L 604.059 237.6 L 604.059 237.329 L 609.342 209.156 L 616.114 209.156 L 616.114 301.939 L 615.979 301.939 Z " fill="rgb(255,0,0)"/><path d=" M 669.211 295.302 C 669.211 297.198 668.533 298.823 667.314 300.042 C 666.095 301.261 664.47 301.939 662.574 301.939 L 637.922 301.939 C 636.025 301.939 634.4 301.261 633.181 300.042 C 631.962 298.823 631.285 297.198 631.285 295.302 L 631.285 215.657 C 631.285 213.761 631.962 212.135 633.181 210.916 C 634.4 209.697 636.025 209.02 637.922 209.02 L 662.574 209.02 C 664.47 209.02 666.095 209.697 667.314 210.916 C 668.533 212.135 669.211 213.761 669.211 215.657 L 669.211 295.302 Z  M 661.084 294.624 L 661.084 216.334 L 639.683 216.334 L 639.683 294.624 L 661.084 294.624 Z " fill="rgb(255,0,0)"/><path d=" M 693.321 301.939 L 685.058 301.939 L 685.058 237.6 L 681.401 237.6 L 681.401 237.329 L 686.684 209.156 L 693.456 209.156 L 693.456 301.939 L 693.321 301.939 Z " fill="rgb(255,0,0)"/><path d=" M 408.876 441.181 C 408.876 443.077 408.199 444.703 406.98 445.922 C 405.761 447.141 404.135 447.818 402.239 447.818 L 377.587 447.818 C 375.691 447.818 374.066 447.141 372.847 445.922 C 371.628 444.703 370.95 443.077 370.95 441.181 L 370.95 361.537 C 370.95 359.64 371.628 358.015 372.847 356.796 C 374.066 355.577 375.691 354.899 377.587 354.899 L 402.239 354.899 C 404.135 354.899 405.761 355.577 406.98 356.796 C 408.199 358.015 408.876 359.64 408.876 361.537 L 408.876 441.181 Z  M 400.614 440.504 L 400.614 362.214 L 379.213 362.214 L 379.213 440.504 L 400.614 440.504 Z " fill="rgb(255,0,0)"/><path d=" M 432.986 447.818 L 424.724 447.818 L 424.724 383.479 L 421.067 383.479 L 421.067 383.208 L 426.349 355.035 L 433.122 355.035 L 433.122 447.818 L 432.986 447.818 Z " fill="rgb(255,0,0)"/><path d=" M 486.353 441.181 C 486.353 443.077 485.676 444.703 484.457 445.922 C 483.238 447.141 481.613 447.818 479.716 447.818 L 455.065 447.818 C 453.168 447.818 451.543 447.141 450.324 445.922 C 449.105 444.703 448.428 443.077 448.428 441.181 L 448.428 361.537 C 448.428 359.64 449.105 358.015 450.324 356.796 C 451.543 355.577 453.168 354.899 455.065 354.899 L 479.716 354.899 C 481.613 354.899 483.238 355.577 484.457 356.796 C 485.676 358.015 486.353 359.64 486.353 361.537 L 486.353 441.181 Z  M 478.091 440.504 L 478.091 362.214 L 456.69 362.214 L 456.69 440.504 L 478.091 440.504 Z " fill="rgb(255,0,0)"/><path d=" M 539.043 441.181 C 539.043 443.077 538.366 444.703 537.147 445.922 C 535.928 447.141 534.303 447.818 532.406 447.818 L 507.754 447.818 C 505.858 447.818 504.233 447.141 503.014 445.922 C 501.795 444.703 501.117 443.077 501.117 441.181 L 501.117 361.537 C 501.117 359.64 501.795 358.015 503.014 356.796 C 504.233 355.577 505.858 354.899 507.754 354.899 L 532.406 354.899 C 534.303 354.899 535.928 355.577 537.147 356.796 C 538.366 358.015 539.043 359.64 539.043 361.537 L 539.043 441.181 Z  M 530.781 440.504 L 530.781 362.214 L 509.38 362.214 L 509.38 440.504 L 530.781 440.504 Z " fill="rgb(255,0,0)"/><path d=" M 591.869 441.181 C 591.869 443.077 591.192 444.703 589.972 445.922 C 588.753 447.141 587.128 447.818 585.232 447.818 L 560.58 447.818 C 558.684 447.818 557.058 447.141 555.839 445.922 C 554.62 444.703 553.943 443.077 553.943 441.181 L 553.943 361.537 C 553.943 359.64 554.62 358.015 555.839 356.796 C 557.058 355.577 558.684 354.899 560.58 354.899 L 585.232 354.899 C 587.128 354.899 588.753 355.577 589.972 356.796 C 591.192 358.015 591.869 359.64 591.869 361.537 L 591.869 441.181 Z  M 583.606 440.504 L 583.606 362.214 L 562.205 362.214 L 562.205 440.504 L 583.606 440.504 Z " fill="rgb(255,0,0)"/><path d=" M 615.979 447.818 L 607.716 447.818 L 607.716 383.479 L 604.059 383.479 L 604.059 383.208 L 609.342 355.035 L 616.114 355.035 L 616.114 447.818 L 615.979 447.818 Z " fill="rgb(255,0,0)"/><path d=" M 640.631 447.818 L 632.368 447.818 L 632.368 383.479 L 628.711 383.479 L 628.711 383.208 L 633.994 355.035 L 640.766 355.035 L 640.766 447.818 L 640.631 447.818 Z " fill="rgb(255,0,0)"/><path d=" M 693.998 441.181 C 693.998 443.077 693.321 444.703 692.102 445.922 C 690.883 447.141 689.257 447.818 687.361 447.818 L 662.709 447.818 C 660.813 447.818 659.187 447.141 657.968 445.922 C 656.749 444.703 656.072 443.077 656.072 441.181 L 656.072 361.537 C 656.072 359.64 656.749 358.015 657.968 356.796 C 659.187 355.577 660.813 354.899 662.709 354.899 L 687.361 354.899 C 689.257 354.899 690.883 355.577 692.102 356.796 C 693.321 358.015 693.998 359.64 693.998 361.537 L 693.998 441.181 Z  M 685.735 440.504 L 685.735 362.214 L 664.334 362.214 L 664.334 440.504 L 685.735 440.504 Z " fill="rgb(255,0,0)"/><path d=" M 394.789 587.06 C 394.789 588.957 394.112 590.582 392.893 591.801 C 391.674 593.02 390.049 593.697 388.152 593.697 L 363.501 593.697 C 361.604 593.697 359.979 593.02 358.76 591.801 C 357.541 590.582 356.863 588.957 356.863 587.06 L 356.863 507.416 C 356.863 505.52 357.541 503.894 358.76 502.675 C 359.979 501.456 361.604 500.779 363.501 500.779 L 388.152 500.779 C 390.049 500.779 391.674 501.456 392.893 502.675 C 394.112 503.894 394.789 505.52 394.789 507.416 L 394.789 587.06 Z  M 386.662 586.248 L 386.662 507.958 L 365.261 507.958 L 365.261 586.248 L 386.662 586.248 Z " fill="rgb(255,0,0)"/><path d=" M 418.899 593.562 L 410.637 593.562 L 410.637 529.223 L 406.98 529.223 L 406.98 528.952 L 412.262 500.779 L 419.035 500.779 L 419.035 593.562 L 418.899 593.562 Z " fill="rgb(255,0,0)"/><path d=" M 472.267 587.06 C 472.267 588.957 471.589 590.582 470.37 591.801 C 469.151 593.02 467.526 593.697 465.63 593.697 L 440.978 593.697 C 439.081 593.697 437.456 593.02 436.237 591.801 C 435.018 590.582 434.341 588.957 434.341 587.06 L 434.341 507.416 C 434.341 505.52 435.018 503.894 436.237 502.675 C 437.456 501.456 439.081 500.779 440.978 500.779 L 465.63 500.779 C 467.526 500.779 469.151 501.456 470.37 502.675 C 471.589 503.894 472.267 505.52 472.267 507.416 L 472.267 587.06 Z  M 464.004 586.248 L 464.004 507.958 L 442.603 507.958 L 442.603 586.248 L 464.004 586.248 Z " fill="rgb(255,0,0)"/><path d=" M 525.092 587.06 C 525.092 588.957 524.415 590.582 523.196 591.801 C 521.977 593.02 520.351 593.697 518.455 593.697 L 493.668 593.697 C 491.771 593.697 490.146 593.02 488.927 591.801 C 487.708 590.582 487.031 588.957 487.031 587.06 L 487.031 507.416 C 487.031 505.52 487.708 503.894 488.927 502.675 C 490.146 501.456 491.771 500.779 493.668 500.779 L 518.32 500.779 C 520.216 500.779 521.841 501.456 523.06 502.675 C 524.279 503.894 524.957 505.52 524.957 507.416 L 524.957 587.06 L 525.092 587.06 Z  M 516.83 586.248 L 516.83 507.958 L 495.429 507.958 L 495.429 586.248 L 516.83 586.248 Z " fill="rgb(255,0,0)"/><path d=" M 549.202 593.562 L 540.94 593.562 L 540.94 529.223 L 537.283 529.223 L 537.283 528.952 L 542.43 500.779 L 549.202 500.779 L 549.202 593.562 Z " fill="rgb(255,0,0)"/><path d=" M 602.434 587.06 C 602.434 588.957 601.757 590.582 600.538 591.801 C 599.319 593.02 597.693 593.697 595.797 593.697 L 571.145 593.697 C 569.249 593.697 567.623 593.02 566.404 591.801 C 565.185 590.582 564.508 588.957 564.508 587.06 L 564.508 507.416 C 564.508 505.52 565.185 503.894 566.404 502.675 C 567.623 501.456 569.249 500.779 571.145 500.779 L 595.797 500.779 C 597.693 500.779 599.319 501.456 600.538 502.675 C 601.757 503.894 602.434 505.52 602.434 507.416 L 602.434 587.06 Z  M 594.171 586.248 L 594.171 507.958 L 572.77 507.958 L 572.77 586.248 L 594.171 586.248 Z " fill="rgb(255,0,0)"/><path d=" M 655.259 587.06 C 655.259 588.957 654.582 590.582 653.363 591.801 C 652.144 593.02 650.519 593.697 648.622 593.697 L 623.97 593.697 C 622.074 593.697 620.449 593.02 619.23 591.801 C 618.011 590.582 617.333 588.957 617.333 587.06 L 617.333 507.416 C 617.333 505.52 618.011 503.894 619.23 502.675 C 620.449 501.456 622.074 500.779 623.97 500.779 L 648.622 500.779 C 650.519 500.779 652.144 501.456 653.363 502.675 C 654.582 503.894 655.259 505.52 655.259 507.416 L 655.259 587.06 Z  M 646.997 586.248 L 646.997 507.958 L 625.596 507.958 L 625.596 586.248 L 646.997 586.248 Z " fill="rgb(255,0,0)"/><path d=" M 707.949 587.06 C 707.949 588.957 707.272 590.582 706.053 591.801 C 704.834 593.02 703.208 593.697 701.312 593.697 L 676.66 593.697 C 674.764 593.697 673.139 593.02 671.92 591.801 C 670.701 590.582 670.023 588.957 670.023 587.06 L 670.023 507.416 C 670.023 505.52 670.701 503.894 671.92 502.675 C 673.139 501.456 674.764 500.779 676.66 500.779 L 701.312 500.779 C 703.208 500.779 704.834 501.456 706.053 502.675 C 707.272 503.894 707.949 505.52 707.949 507.416 L 707.949 587.06 Z  M 699.687 586.248 L 699.687 507.958 L 678.286 507.958 L 678.286 586.248 L 699.687 586.248 Z " fill="rgb(255,0,0)"/></g><g><g><path d=" M 199.2 378.874 C 248.097 378.874 255.005 352.055 255.005 327.81 C 255.005 308.44 252.296 289.206 249.452 269.972 C 246.743 250.603 243.898 232.047 243.898 212.813 C 243.898 149.422 285.888 122.468 344.538 122.468 L 480.394 122.468 L 480.394 160.8 L 345.892 160.394 C 305.934 161.071 291.441 182.472 291.441 219.721 C 291.441 235.568 294.15 252.093 296.317 268.618 C 299.026 285.82 301.871 302.345 301.871 321.037 C 301.871 365.194 282.637 387.137 252.296 395.534 L 252.296 396.889 C 282.637 404.474 301.871 427.907 301.871 472.063 C 301.871 490.62 299.162 507.958 296.317 524.483 C 294.286 541.685 291.441 557.532 291.441 574.057 C 291.441 612.66 307.966 633.384 346.569 634.061 L 480.394 634.061 L 480.394 671.987 L 343.86 671.987 C 287.378 671.987 243.898 647.2 243.898 577.579 C 243.898 559.022 246.607 539.653 249.452 521.096 C 252.161 502.54 255.005 483.848 255.005 465.291 C 255.005 443.89 248.097 414.226 199.2 414.226 L 199.2 378.874 Z " fill="rgb(255,0,0)"/></g><g><path d=" M 864.8 413.956 C 815.903 413.956 808.995 443.619 808.995 465.02 C 808.995 483.577 811.704 502.269 814.548 520.825 C 817.257 539.382 820.102 558.751 820.102 577.308 C 820.102 646.929 776.622 671.716 720.14 671.716 L 583.471 671.716 L 583.471 633.79 L 717.295 633.79 C 755.898 633.113 772.423 612.389 772.423 573.786 C 772.423 557.261 769.714 541.414 767.547 524.212 C 764.838 507.687 761.994 490.485 761.994 471.793 C 761.994 427.636 781.228 404.203 811.568 396.618 L 811.568 395.263 C 781.228 387.001 761.994 364.923 761.994 320.766 C 761.994 302.21 764.703 285.549 767.547 268.347 C 769.579 251.822 772.423 235.297 772.423 219.45 C 772.423 182.201 757.93 160.8 717.972 160.123 L 583.471 160.529 L 583.471 122.468 L 719.327 122.468 C 777.841 122.468 819.966 149.287 819.966 212.813 C 819.966 232.047 817.257 250.739 814.413 269.972 C 811.704 289.206 808.859 308.576 808.859 327.81 C 808.859 351.92 815.767 378.874 864.665 378.874 L 864.665 413.956 L 864.8 413.956 Z " fill="rgb(255,0,0)"/></g></g></g></g></g></svg>